HIERARCHY
ROOT SpineBase
{
  OFFSET 0.000000 0.000000 0.000000
  CHANNELS 6 Xposition Yposition Zposition Zrotation Xrotation Yrotation
  JOINT SpineMid
  {
    OFFSET 0.000000 31.111154 0.000000
    CHANNELS 3 Zrotation Xrotation Yrotation
    JOINT SpineShoulder
    {
      OFFSET -0.129454 23.072950 -0.796212
      CHANNELS 3 Zrotation Xrotation Yrotation
      JOINT Neck
      {
        OFFSET -0.116936 7.627773 -0.601152
        CHANNELS 3 Zrotation Xrotation Yrotation
        JOINT Head
        {
          OFFSET -3.479287 13.452231 -0.266736
          CHANNELS 3 Zrotation Xrotation Yrotation
          End Site
          {
            OFFSET 0 0 0
          }
        }
      }
      JOINT ShoulderLeft
      {
        OFFSET -14.524527 -5.200565 9.822051
        CHANNELS 3 Zrotation Xrotation Yrotation
        JOINT ElbowLeft
        {
          OFFSET -3.646470 -27.085123 2.573581
          CHANNELS 3 Zrotation Xrotation Yrotation
          JOINT WristLeft
          {
            OFFSET -2.714175 -21.965414 -4.156612
            CHANNELS 3 Zrotation Xrotation Yrotation
            JOINT HandLeft
            {
              OFFSET -2.228938 -7.558006 0.411767
              CHANNELS 3 Zrotation Xrotation Yrotation
              JOINT HandTipLeft
              {
                OFFSET 0.115481 -7.036058 -0.308259
                CHANNELS 3 Zrotation Xrotation Yrotation
                End Site
                {
                  OFFSET 0 0 0
                }
              }
              JOINT ThumbLeft
              {
                OFFSET -2.983407 0.172189 -2.157850
                CHANNELS 3 Zrotation Xrotation Yrotation
                End Site
                {
                  OFFSET 0 0 0
                }
              }
            }
          }
        }
      }
      JOINT ShoulderRight
      {
        OFFSET 11.885819 -3.373362 -9.946702
        CHANNELS 3 Zrotation Xrotation Yrotation
        JOINT ElbowRight
        {
          OFFSET 8.053623 -26.138679 -4.918304
          CHANNELS 3 Zrotation Xrotation Yrotation
          JOINT WristRight
          {
            OFFSET 0.663904 -21.941692 -7.027901
            CHANNELS 3 Zrotation Xrotation Yrotation
            JOINT HandRight
            {
              OFFSET -0.656079 -5.403911 0.572215
              CHANNELS 3 Zrotation Xrotation Yrotation
              JOINT HandTipRight
              {
                OFFSET -0.352841 -6.498536 -2.495427
                CHANNELS 3 Zrotation Xrotation Yrotation
                End Site
                {
                  OFFSET 0 0 0
                }
              }
              JOINT ThumbRight
              {
                OFFSET 2.662532 2.316893 -2.312576
                CHANNELS 3 Zrotation Xrotation Yrotation
                End Site
                {
                  OFFSET 0 0 0
                }
              }
            }
          }
        }
      }
    }
  }
  JOINT HipLeft
  {
    OFFSET -6.274136 -0.175575 0.186168
    CHANNELS 3 Zrotation Xrotation Yrotation
    JOINT KneeLeft
    {
      OFFSET 1.036253 -34.110428 5.120600
      CHANNELS 3 Zrotation Xrotation Yrotation
      JOINT AnkleLeft
      {
        OFFSET 2.604306 -37.221374 9.002594
        CHANNELS 3 Zrotation Xrotation Yrotation
        JOINT FootLeft
        {
          OFFSET -7.197269 -3.603947 -12.157586
          CHANNELS 3 Zrotation Xrotation Yrotation
          End Site
          {
            OFFSET 0 0 0
          }
        }
      }
    }
  }
  JOINT HipRight
  {
    OFFSET 4.492767 1.435832 -7.683265
    CHANNELS 3 Zrotation Xrotation Yrotation
    JOINT KneeRight
    {
      OFFSET 7.278437 -35.997639 -4.453112
      CHANNELS 3 Zrotation Xrotation Yrotation
      JOINT AnkleRight
      {
        OFFSET 6.347516 -34.614760 3.218732
        CHANNELS 3 Zrotation Xrotation Yrotation
        JOINT FootRight
        {
          OFFSET -7.426244 -3.574424 -12.087671
          CHANNELS 3 Zrotation Xrotation Yrotation
          End Site
          {
            OFFSET 0 0 0
          }
        }
      }
    }
  }
}
MOTION
Frames: 15
Frame Time: 0.033333
86.058250 79.267193 377.308012 -1.177793 -1.225999 26.720934 0.372199 0.066574 -26.770455 0.145147 0.044402 -0.037316 -6.082743 -2.015365 -0.913517 0.000000 0.000000 0.000000 -2.939325 -1.198446 -0.000782 7.346549 -0.551589 -0.426884 0.375481 7.927987 -1.264443 0.117746 -5.456358 1.357147 0.000000 0.000000 0.000000 0.000000 0.000000 0.000000 3.059312 -3.842921 -1.796056 10.748520 17.183702 -4.257410 -3.118168 37.303890 -5.538618 -11.982943 -13.235360 -1.155039 0.000000 0.000000 0.000000 0.000000 0.000000 0.000000 4.203048 -0.768599 -26.299121 -0.340233 1.869361 0.272116 4.684022 -13.437059 -2.604606 0.000000 0.000000 0.000000 2.472331 7.416591 -25.203175 5.976800 -4.867693 -0.417548 -2.507525 -0.982619 -6.650278 0.000000 0.000000 0.000000
85.621218 79.267285 377.715602 -1.235956 -1.587648 25.447293 0.263682 -0.042636 -25.509332 0.104116 -0.032161 -0.051931 -7.169740 -2.801263 -1.313821 0.000000 0.000000 0.000000 -2.904038 -0.893147 0.070786 6.688558 -1.093675 -0.199463 0.746766 8.499129 -1.464542 -1.061311 -4.989443 1.239222 0.000000 0.000000 0.000000 0.000000 0.000000 0.000000 4.888277 -3.928038 -2.275997 14.086954 27.992270 -7.508802 -1.471721 40.753615 -8.961551 -13.369874 -19.810461 -3.042622 0.000000 0.000000 0.000000 0.000000 0.000000 0.000000 4.965995 -0.395020 -24.973932 -0.625292 1.659471 0.242659 3.775678 -11.750076 -4.470445 0.000000 0.000000 0.000000 2.472573 10.034084 -23.409457 6.733358 -5.771474 -0.562039 -2.084049 -2.119605 -7.839687 0.000000 0.000000 0.000000
85.259839 79.226379 377.874987 -1.305196 -1.938150 24.657508 0.177801 -0.116802 -24.732124 0.056327 -0.107783 -0.066683 -8.265850 -3.904640 -1.822649 0.000000 0.000000 0.000000 -3.014479 -0.741236 0.135395 5.520419 -1.424123 0.136253 1.540326 8.848510 -1.752096 -2.854451 -4.688940 1.100581 0.000000 0.000000 0.000000 0.000000 0.000000 0.000000 7.456342 -3.142778 -2.644062 18.222834 38.834283 -12.523134 0.243269 39.337437 -11.168883 -13.271597 -22.653180 -4.425005 0.000000 0.000000 0.000000 0.000000 0.000000 0.000000 5.484346 -0.278024 -24.156976 -0.844276 1.770217 0.223023 2.160762 -8.629559 -6.055100 0.000000 0.000000 0.000000 2.323831 12.385958 -22.120683 7.322777 -6.053061 -0.646768 -1.596931 -3.665762 -8.515154 0.000000 0.000000 0.000000
85.001020 79.185906 377.830150 -1.446294 -2.207651 24.222607 0.034772 -0.216341 -24.314151 -0.025811 -0.256805 -0.090229 -8.503852 -4.468407 -2.123139 0.000000 0.000000 0.000000 -3.556445 -0.832769 0.193868 4.499559 -1.150759 0.511575 2.439628 9.303435 -2.208894 -2.236325 -5.934723 1.183598 0.000000 0.000000 0.000000 0.000000 0.000000 0.000000 10.337363 -1.246923 -2.843307 24.505793 48.205173 -19.968014 7.498255 41.942164 -14.663758 -22.246728 -29.378854 -11.987769 0.000000 0.000000 0.000000 0.000000 0.000000 0.000000 5.791080 -0.413676 -23.715007 -0.986507 2.077871 0.209976 0.136772 -4.425432 -7.239294 0.000000 0.000000 0.000000 2.165209 14.149783 -21.271995 7.636341 -5.627585 -0.663882 -1.075903 -5.485509 -8.731464 0.000000 0.000000 0.000000
84.741517 79.140365 377.408665 -1.856423 -3.014082 25.391098 -0.062177 -0.210726 -25.525378 -0.052121 -0.213396 -0.121156 -8.330478 -4.246811 -2.168157 0.000000 0.000000 0.000000 -3.596045 -0.997907 0.335985 2.423941 -0.628756 1.022470 4.498728 10.231333 -3.023710 -2.382474 -7.637639 1.324937 0.000000 0.000000 0.000000 0.000000 0.000000 0.000000 14.061894 2.986300 -2.898220 30.885142 53.645482 -28.036430 12.767387 41.947386 -15.343864 -24.288160 -30.899294 -16.070742 0.000000 0.000000 0.000000 0.000000 0.000000 0.000000 6.410743 -0.441115 -24.936221 -1.035310 2.450883 0.209504 -2.243798 0.246587 -7.346157 0.000000 0.000000 0.000000 2.787949 15.211081 -22.320299 7.704168 -4.252806 -0.556514 -0.797530 -7.428833 -7.885138 0.000000 0.000000 0.000000
84.558553 79.063840 376.591176 -2.378647 -3.873035 27.857913 -0.195895 -0.259475 -28.050919 -0.048052 -0.116840 -0.154154 -7.927365 -3.476355 -2.023307 0.000000 0.000000 0.000000 -3.280396 -1.270598 0.520263 -0.094580 -0.200593 1.624546 6.846419 10.782421 -3.758425 -3.807691 -7.046058 1.261334 0.000000 0.000000 0.000000 0.000000 0.000000 0.000000 17.500923 9.021524 -2.842693 33.443041 53.899066 -31.868824 18.518584 43.249640 -14.787639 -26.675562 -29.537053 -20.973321 0.000000 0.000000 0.000000 0.000000 0.000000 0.000000 6.862320 -0.764340 -27.491373 -0.834083 2.924465 0.244791 -2.898399 0.663529 -5.944881 0.000000 0.000000 0.000000 3.716541 15.282281 -24.905406 7.847217 -2.359942 -0.341987 -0.902207 -9.057033 -6.349727 0.000000 0.000000 0.000000
84.478789 78.958483 375.513532 -2.877548 -4.623112 30.365394 -0.257669 -0.256641 -30.617373 -0.043311 -0.064484 -0.183235 -7.557975 -2.445777 -1.765732 0.000000 0.000000 0.000000 -3.315086 -2.412236 0.721461 -2.058395 0.501226 2.236646 8.962287 11.523177 -4.472889 -5.262317 -7.092295 1.118302 0.000000 0.000000 0.000000 0.000000 0.000000 0.000000 17.663009 14.632405 -2.035673 39.154467 53.888711 -35.811642 30.282893 46.383241 -8.998512 -31.947834 -25.528750 -32.155912 0.000000 0.000000 0.000000 0.000000 0.000000 0.000000 6.916084 -1.281266 -30.118300 -0.319158 3.574347 0.323108 -2.617978 -1.431051 -3.427774 0.000000 0.000000 0.000000 4.284843 15.355085 -27.447125 8.718551 -1.309101 -0.184630 -1.444815 -9.826654 -4.633742 0.000000 0.000000 0.000000
84.537326 78.830966 373.688514 -3.536767 -5.339161 33.562014 -0.241071 -0.189808 -33.888446 -0.007218 0.047779 -0.212401 -6.422007 -1.155650 -1.390931 0.000000 0.000000 0.000000 -3.037036 -3.309141 0.880727 -3.633007 0.227852 2.797573 12.210129 13.100761 -5.531975 -7.614700 -6.979353 0.983169 0.000000 0.000000 0.000000 0.000000 0.000000 0.000000 16.276082 20.441989 -0.438694 47.432582 49.181387 -38.158696 30.848796 49.785268 -16.484498 -19.814497 -30.286892 -21.980114 0.000000 0.000000 0.000000 0.000000 0.000000 0.000000 6.283699 -2.356884 -33.520611 0.723261 4.587331 0.442931 -3.714501 -0.727843 -0.973945 0.000000 0.000000 0.000000 4.646194 14.542339 -30.802808 9.976490 -0.393097 -0.064787 -2.631049 -9.294037 -2.159164 0.000000 0.000000 0.000000
84.680074 78.753554 371.672227 -4.217714 -5.710107 38.469493 -0.213046 -0.137274 -38.866206 0.061065 0.161406 -0.236768 -4.994747 -0.669596 -1.261884 0.000000 0.000000 0.000000 -2.252261 -7.949037 1.302875 -4.798938 6.288480 3.086073 13.439973 14.276358 -6.287339 -9.566139 -7.975772 1.331145 0.000000 0.000000 0.000000 0.000000 0.000000 0.000000 12.481656 26.676573 2.656351 51.620208 43.889244 -35.278325 41.614279 54.127659 -15.059378 -19.633938 -32.663141 -25.211507 0.000000 0.000000 0.000000 0.000000 0.000000 0.000000 5.418255 -3.355797 -38.640390 1.982072 4.911444 0.555647 -5.578890 0.775013 2.620382 0.000000 0.000000 0.000000 4.777960 12.970393 -35.935963 11.556595 0.067102 -0.061268 -3.690879 -8.640521 1.044975 0.000000 0.000000 0.000000
85.032984 78.514941 369.102666 -4.741596 -6.095421 40.042575 -0.043054 -0.071684 -40.496548 0.138183 0.229405 -0.251780 -3.829330 0.583832 -0.882264 0.000000 0.000000 0.000000 -1.762980 -10.250012 1.534392 -5.022807 5.839028 3.254553 13.622852 14.777307 -6.338692 -7.135880 -3.855482 1.272131 0.000000 0.000000 0.000000 0.000000 0.000000 0.000000 6.747514 32.207572 6.928179 56.238780 40.309465 -32.293573 36.942379 52.691372 -16.863999 -2.085377 -35.695341 -4.149766 0.000000 0.000000 0.000000 0.000000 0.000000 0.000000 2.931762 -4.657420 -40.677251 3.851754 6.754052 0.619977 -5.002932 -0.950469 5.446360 0.000000 0.000000 0.000000 3.960880 11.986893 -37.636945 13.239075 0.427975 -0.105560 -5.021977 -7.813839 4.472164 0.000000 0.000000 0.000000
85.403480 77.886840 366.561173 -5.239568 -6.481605 39.649794 0.226224 -0.033938 -40.161293 0.183979 0.285367 -0.262779 -2.617863 2.282914 -0.380951 0.000000 0.000000 0.000000 -1.347177 -10.325419 1.588661 -4.669182 2.375263 3.197663 17.768676 12.768010 -6.305512 -8.981453 -1.489007 -0.192765 0.000000 0.000000 0.000000 0.000000 0.000000 0.000000 -1.447068 36.650638 12.838461 58.446177 37.302028 -27.280936 21.829281 48.106132 -25.818467 22.447326 -26.045968 25.975895 0.000000 0.000000 0.000000 0.000000 0.000000 0.000000 1.005433 -6.246383 -40.731121 4.821098 8.819430 0.527517 -4.209051 -2.755857 8.860915 0.000000 0.000000 0.000000 3.194035 11.080678 -37.429745 14.146022 0.705565 -0.199121 -5.960516 -7.252549 8.061585 0.000000 0.000000 0.000000
85.850532 77.711782 363.933112 -5.435152 -6.441110 42.285932 0.240188 0.135708 -42.803231 0.143535 0.076574 -0.287027 -1.746809 2.453064 -0.352162 0.000000 0.000000 0.000000 -0.958196 -8.674817 1.476426 -2.805788 -5.046436 2.843494 17.747466 11.643143 -5.568129 -9.481233 0.881906 -1.824253 0.000000 0.000000 0.000000 0.000000 0.000000 0.000000 -9.198687 38.355988 18.243467 60.815934 37.339427 -24.418579 -2.997721 38.736204 -34.989885 40.276643 0.369307 44.730083 0.000000 0.000000 0.000000 0.000000 0.000000 0.000000 -2.037116 -6.888765 -43.911337 6.846038 10.441255 0.462129 -3.790647 -4.508978 13.070382 0.000000 0.000000 0.000000 1.631723 9.379786 -40.394669 15.372718 2.226498 -0.279583 -6.943247 -7.120445 12.048129 0.000000 0.000000 0.000000
86.778115 78.341067 361.095444 -5.101364 -6.463498 52.291281 0.273904 -0.022293 -52.784919 0.022284 -0.096108 -0.281837 -1.851195 4.263262 0.153405 0.000000 0.000000 0.000000 -3.353379 -3.667865 0.961016 2.031088 -16.935087 2.996112 18.499841 9.489229 -4.481090 -11.934229 4.630622 -3.722302 0.000000 0.000000 0.000000 0.000000 0.000000 0.000000 -21.104376 40.160835 26.413924 62.489306 35.420875 -18.935705 -17.299075 29.091910 -36.560611 46.945906 13.639324 44.096752 0.000000 0.000000 0.000000 0.000000 0.000000 0.000000 -6.160891 -4.726867 -54.353007 9.207861 11.240378 0.404801 -3.869716 -5.954994 21.948402 0.000000 0.000000 0.000000 -0.171778 6.599607 -51.302710 15.312724 5.871945 -0.267178 -8.243154 -7.703694 19.702330 0.000000 0.000000 0.000000
87.352607 78.757326 359.006084 -4.922086 -7.228642 55.322441 0.348211 -0.136745 -55.841368 0.066642 -0.071046 -0.273083 -2.104769 7.534192 1.019316 0.000000 0.000000 0.000000 -3.510703 0.733308 0.820882 6.154737 -27.947350 4.021072 19.449637 8.058380 -3.533325 -15.500597 6.272263 -5.105118 0.000000 0.000000 0.000000 0.000000 0.000000 0.000000 -30.947687 37.776642 31.525919 66.690690 37.654628 -17.174686 -3.745476 26.908895 -22.745016 45.345852 -13.068600 42.631452 0.000000 0.000000 0.000000 0.000000 0.000000 0.000000 -7.647943 -3.403078 -57.528726 9.997586 12.149780 0.298492 -2.670573 -6.840509 24.010777 0.000000 0.000000 0.000000 -1.372930 5.545401 -54.918525 14.765547 8.310377 -0.209259 -7.647108 -8.184863 21.425093 0.000000 0.000000 0.000000
87.700197 79.404798 357.332402 -4.948591 -8.566408 52.676521 0.492295 -0.046286 -53.260509 0.278152 0.450439 -0.255623 -2.009982 9.818775 1.553914 0.000000 0.000000 0.000000 -1.195941 3.930900 0.718713 8.440318 -37.536557 5.938165 20.893226 6.950239 -2.963121 -21.162434 8.700985 -5.061658 0.000000 0.000000 0.000000 0.000000 0.000000 0.000000 -38.849220 36.514556 36.278869 71.409587 38.033798 -15.332421 -22.638722 17.673546 -34.462018 42.929932 -7.624420 38.246506 0.000000 0.000000 0.000000 0.000000 0.000000 0.000000 -7.448036 -3.297229 -54.959050 9.772396 12.871158 0.203191 -0.874733 -7.023040 20.847671 0.000000 0.000000 0.000000 -1.821410 5.091997 -52.666302 13.992673 10.005253 -0.101739 -5.830337 -8.485726 18.795025 0.000000 0.000000 0.000000
